<mxfile host="app.diagrams.net" modified="2020-12-23T08:22:31.651Z" agent="5.0 (Windows NT 10.0; Win64; x64) AppleWebKit/537.36 (KHTML, like Gecko) Chrome/87.0.4280.88 Safari/537.36" etag="NOgSAwZVvCFfbAh9bwH6" version="14.1.1" type="github">
  <diagram id="R6sOAixPaMjaKk4_oldX" name="Page-1">
    <mxGraphModel dx="868" dy="450" grid="1" gridSize="10" guides="1" tooltips="1" connect="1" arrows="1" fold="1" page="1" pageScale="1" pageWidth="850" pageHeight="1100" math="0" shadow="0">
      <root>
        <mxCell id="0" />
        <mxCell id="1" parent="0" />
        <mxCell id="cXQRsrSOj--JNIxGzM1Y-1" value="Main" style="swimlane;fontStyle=1;align=center;verticalAlign=top;childLayout=stackLayout;horizontal=1;startSize=26;horizontalStack=0;resizeParent=1;resizeParentMax=0;resizeLast=0;collapsible=1;marginBottom=0;" parent="1" vertex="1">
          <mxGeometry x="60" y="50" width="270" height="210" as="geometry" />
        </mxCell>
        <mxCell id="cXQRsrSOj--JNIxGzM1Y-2" value="+passenger:Passenger&#xa;+flight:Flight&#xa;+regularTicket:RegularTicket&#xa;+touristTicket:TouristTicket&#xa;+hotelAddress:String&#xa;+locations:String[]&#xa;" style="text;strokeColor=none;fillColor=none;align=left;verticalAlign=top;spacingLeft=4;spacingRight=4;overflow=hidden;rotatable=0;points=[[0,0.5],[1,0.5]];portConstraint=eastwest;" parent="cXQRsrSOj--JNIxGzM1Y-1" vertex="1">
          <mxGeometry y="26" width="270" height="114" as="geometry" />
        </mxCell>
        <mxCell id="cXQRsrSOj--JNIxGzM1Y-3" value="" style="line;strokeWidth=1;fillColor=none;align=left;verticalAlign=middle;spacingTop=-1;spacingLeft=3;spacingRight=3;rotatable=0;labelPosition=right;points=[];portConstraint=eastwest;" parent="cXQRsrSOj--JNIxGzM1Y-1" vertex="1">
          <mxGeometry y="140" width="270" height="8" as="geometry" />
        </mxCell>
        <mxCell id="cXQRsrSOj--JNIxGzM1Y-4" value="+printTicketDetails(Ticket):void" style="text;strokeColor=none;fillColor=none;align=left;verticalAlign=top;spacingLeft=4;spacingRight=4;overflow=hidden;rotatable=0;points=[[0,0.5],[1,0.5]];portConstraint=eastwest;" parent="cXQRsrSOj--JNIxGzM1Y-1" vertex="1">
          <mxGeometry y="148" width="270" height="62" as="geometry" />
        </mxCell>
      </root>
    </mxGraphModel>
  </diagram>
</mxfile>
